<?xml version="1.0" encoding="utf-8"?>
<!-- Generator: Adobe Illustrator 27.2.0, SVG Export Plug-In . SVG Version: 6.00 Build 0)  -->
<svg version="1.1" id="Слой_1" xmlns="http://www.w3.org/2000/svg" xmlns:xlink="http://www.w3.org/1999/xlink" x="0px" y="0px"
	 viewBox="0 0 160 160" style="enable-background:new 0 0 160 160;" xml:space="preserve">
<style type="text/css">
	.st0{fill:#F6A505;}
	.st1{fill:#6292C7;}
	.st2{fill:#C2C2C3;}
	.st3{fill:#FFFFFF;}
	.st4{fill:#7F54B3;}
</style>
<circle class="st0" cx="58.3" cy="29.2" r="17.8"/>
<g>
	<path class="st1" d="M88.1,53.2c0,0.3,0,0.7,0,1c-0.7,1.7-1.6,3.2-2.8,4.6c-2.8,2.9-5.7,5.7-8.9,8.1c-5,3.9-9.8,8-14.4,12.3
		c-0.5,0.4-0.9,0.6-1.5,0.6c-1.9-0.1-3.8-0.2-5.7-0.2c-2.4-0.2-4.7,0-7.2,0.2c-2.3,0.2-4.3,0.8-6.3,2c-2.4,1.5-4.1,3.6-5.8,5.8
		c-2.1,2.8-4.2,5.5-5.3,8.9c-0.7,2.4,0.2,4.1,2.6,5c0.9,0.4,2,0,3.1,0.5c-1.5,1-2.4,2.5-3.5,3.7c-0.9,0.9-1.4,2-1.8,3.2
		c-0.5,1.4,0,2.4,1,3.1c2,1.7,4.6,1.8,6.9,1.9c1.8,0.1,3.7-0.2,5.4-0.9c0.3-0.1,0.6-0.2,0.8,0.4c0.8,2.5,2.4,3.8,4.8,4
		c5,0.5,8.5-2.2,11.7-5.5c0.3-0.3,0.8-0.9,0.3-1.4c-0.5-0.5-1,0-1.5,0.2c-0.9,0.6-1.6,1.3-2.4,1.9c-2.2,1.5-4.5,2.6-7.2,2.3
		c-1.2-0.1-2.4-0.5-3-1.7c-0.6-1.2,0.5-2,1.1-2.8c0.9-1.2,2-2.1,3.1-3.1c3.1-2.7,6.3-4.6,10.8-3.9c4.1,0.6,8,1.5,11.8,3.2
		c3.1,1.4,3.6,3.2,2.1,6.4c-1.6,3.4-4,6.2-6.6,8.8c-2.7,2.6-5.5,5.1-8.6,7.2c-3.5,2.4-7.3,5-13.1,6.4c-1.1,0.3-2,0.5-2.7,0.6
		c-0.6,0-1.3,0.1-1.9,0.1c-0.4,0-0.9,0-1.6-0.1c0,0-0.6-0.2-1-0.2c-6.8-1.6-13.8-7.6-13.8-7.6c-4.2-3.5-7.8-7.7-10.1-12.8
		c-1.8-4-2.6-8.1-1.4-12.5c1.1-4.3,3.1-8.3,4.3-12.6c0.9-3.1,1.9-6.3,2.1-9.6c0.3-3.5-0.4-6.8-1.4-10.1c-1.3-4.3-3.1-8.3-6.1-11.9
		c-2.1-2.6-1.2-5.3,2-6.3c2.8-0.9,5.3-0.2,7.7,1.1c4.6,2.4,7.4,6.3,9.3,10.9c2,4.9,3.1,9.9,3.1,15.1c0,0.2-0.1,0.6,0.2,0.6
		c0.2,0,0.4-0.2,0.6-0.3c3.3-2.6,6.7-5.3,10-7.9c5.7-4.5,11.6-8.8,17.6-12.9c4-2.8,8-5.4,12.7-7.2c1.7-0.6,3.5-0.9,5.1-1.3
		c0.5,0,0.9,0,1.3,0C85.8,50.9,87.3,51.6,88.1,53.2z"/>
	<path class="st1" d="M74.8,100.1c-0.1,0.9-0.2,1.7-0.2,2.4c-0.1,1.2-0.5,1.1-1.3,0.8c-3.7-1.3-7.5-1.9-11.3-2.4
		c-4.3-0.6-7.5,1-10.6,3.7c-1.6,1.3-3.1,2.8-4.6,4.1c-2,1.6-4.4,2.3-6.9,2.5c-1.4,0.2-2.9,0.2-4.4-0.2c-1.7-0.5-2.1-1.4-1.2-2.8
		c1.3-2,3-3.8,4.8-5.4c1.9-1.7,3.9-3.4,5.8-5.1c1.2-1,2.3-2,3.6-2.9c1.7-1,3.5-1.3,5.4-1.4c5.8-0.3,11.6,0.2,17.1,2
		C73.7,96.2,75.1,97.6,74.8,100.1z"/>
	<path class="st1" d="M51.9,82.5c4.2-0.1,8.5,0.4,12.7,1c3.4,0.6,4.3,3,3.8,5.8c-0.4,2.2-0.6,2.2-3.5,1.7c-4.8-0.9-9.6-1.1-14.4-0.2
		c-2.2,0.5-4,1.7-5.7,3.1c-2,1.7-4,3.4-6.1,5c-1.1,0.9-4.6,0.6-5.7-0.2c-0.9-0.8-0.6-1.7-0.2-2.6c1.1-2.4,2.8-4.6,4.4-6.8
		c1.2-1.7,2.5-3.1,4.1-4.5c2.1-1.8,4.7-2.3,7.4-2.4C50,82.4,50.9,82.5,51.9,82.5z"/>
</g>
<path class="st2" d="M32.7,42c-0.7-0.2-1.3-0.6-1.8-1c-3.1-2.1-6.1-4.1-9.4-6c-2.4-1.4-4.7-2.8-7.1-4.2c-3.2-1.9-6.5-3.7-9.8-5.6
	c-1.4-0.8-2.8-1.7-3.7-3.1c-0.3-0.5-0.2-1-0.2-1.5c0.1-0.3,0.4-0.5,0.7-0.5c0.9-0.1,1.6,0.3,2.3,0.8c3.3,2.3,6.6,4.6,9.9,6.9
	c3.6,2.6,7.2,5.3,10.9,7.9c2.5,1.8,5,3.7,7.5,5.5C32.3,41.4,32.5,41.6,32.7,42z"/>
<path class="st2" d="M19.6,41.2c-0.6,0.2-1.3-0.1-2-0.2c-3.5-0.7-7.1-1.3-10.6-1.8c-1.7-0.2-3.5-0.6-5.2-0.9c-0.6-0.1-1-0.4-1.5-0.7
	c-0.2-0.2-0.4-0.6-0.3-0.9S0.4,36,0.7,36c0.5,0,0.9-0.1,1.3,0.1c4.2,1.4,8.5,2.5,12.8,3.6c1.4,0.4,2.8,0.7,4.2,1
	C19.3,40.8,19.5,40.9,19.6,41.2z"/>
<path class="st2" d="M20.8,16c0-0.5-0.1-0.9,0.4-1.1c0.5-0.2,0.8,0.1,1.1,0.3c0.9,0.8,1.2,1.9,1.7,2.8c1.2,2.2,2.4,4.4,3.6,6.5
	c1.1,1.9,2.2,3.8,3.3,5.7c0.2,0.2,0.3,0.5,0,0.6c-0.2,0.2-0.3-0.2-0.5-0.3c-1.8-2.5-3.5-5-5.3-7.6c-1.3-1.8-2.7-3.5-3.9-5.4
	C21,17,20.7,16.5,20.8,16z"/>
<path class="st3" d="M64.6,29.7c3.1-2.9,2.8-6.1-0.7-8.8c0.2-0.5,0.3-0.9,0.5-1.5c0.2-0.9-0.1-1.6-0.9-1.8c-0.7-0.2-1.4,0.2-1.7,1
	c-0.2,0.6-0.3,1-0.5,1.5c-0.6-0.2-1.2-0.4-1.7-0.6c0.2-0.6,0.3-1,0.5-1.5c0.2-0.9-0.1-1.7-0.9-1.9s-1.4,0.2-1.7,1.1
	c-0.2,0.5-0.3,1-0.5,1.5c-0.6-0.2-1-0.3-1.5-0.5c-0.8-0.2-1.5,0.1-1.7,0.9c-0.2,0.7,0.2,1.4,0.9,1.7c0.5,0.2,1,0.3,1.5,0.5
	c-1.3,4-2.4,7.9-3.6,11.9c-0.6-0.2-1-0.3-1.5-0.5c-0.8-0.2-1.5,0.1-1.7,0.9c-0.2,0.7,0.2,1.4,0.9,1.7c0.5,0.2,1,0.3,1.4,0.5
	c0,0.1,0,0.2,0,0.2c-0.2,0.6-0.3,1.1-0.5,1.7c-0.2,0.8,0.2,1.5,0.9,1.7s1.4-0.2,1.7-0.9c0.2-0.6,0.4-1.2,0.6-1.7
	c0.6,0.2,1.2,0.4,1.7,0.6c-0.2,0.6-0.4,1.2-0.6,1.8c-0.2,0.8,0.2,1.5,0.9,1.7s1.4-0.2,1.7-0.9c0.2-0.6,0.4-1.2,0.6-1.8
	c2.6,0.9,4.9,0.6,6.4-1.7C66.7,34,66.4,31.7,64.6,29.7z M58.9,22.3c1.3,0.4,2.8,0.7,4.1,1.3c1,0.5,1.3,1.7,0.9,2.8
	c-0.4,1-1.5,1.7-2.6,1.5c-1.3-0.3-2.6-0.8-3.9-1.2C57.9,25.3,58.4,23.8,58.9,22.3z M60.4,35.7c-1.7-0.5-3.4-1-5.2-1.6
	c0.5-1.6,0.9-3,1.4-4.6c0.4,0.2,0.8,0.2,1.2,0.4c1.3,0.4,2.7,0.8,3.9,1.3c1.3,0.4,2,1.7,1.6,3C63,35.4,61.6,36.1,60.4,35.7z"/>
<path class="st4" d="M86.3,66.9h66.2c4.2,0,7.6,3.4,7.6,7.6v25.3c0,4.2-3.4,7.6-7.6,7.6h-23.7l3.3,8l-14.3-8H86.4
	c-4.2,0-7.6-3.4-7.6-7.6V74.5C78.7,70.3,82.1,66.9,86.3,66.9L86.3,66.9z"/>
<path class="st3" d="M83.4,73.8c0.5-0.6,1.2-1,2.1-1c1.7-0.1,2.6,0.7,2.9,2.4c1,6.9,2.1,12.8,3.3,17.6L99,78.9
	c0.7-1.3,1.5-1.9,2.5-2c1.5-0.1,2.3,0.8,2.7,2.8c0.8,4.4,1.9,8.1,3.1,11.3c0.9-8.4,2.3-14.5,4.4-18.2c0.5-0.9,1.2-1.4,2.2-1.5
	c0.8-0.1,1.5,0.2,2.1,0.7c0.6,0.5,1,1.1,1,1.9c0,0.6-0.1,1.1-0.3,1.6c-1.3,2.4-2.3,6.4-3.2,11.9c-0.8,5.4-1.1,9.6-0.9,12.6
	c0.1,0.8-0.1,1.6-0.4,2.2c-0.4,0.7-1,1.1-1.8,1.2c-0.9,0.1-1.8-0.3-2.6-1.2c-3.1-3.1-5.5-7.8-7.3-14.1c-2.1,4.2-3.7,7.4-4.8,9.5
	c-2,3.7-3.6,5.7-5,5.8c-0.9,0.1-1.7-0.7-2.3-2.3c-1.7-4.3-3.5-12.7-5.5-25.1C82.8,75.2,82.9,74.4,83.4,73.8L83.4,73.8z M154.5,79
	c-1.2-2.1-2.9-3.3-5.3-3.8c-0.6-0.1-1.2-0.2-1.8-0.2c-3.2,0-5.8,1.7-7.8,5c-1.7,2.8-2.6,5.9-2.6,9.3c0,2.5,0.5,4.7,1.6,6.5
	c1.2,2.1,2.9,3.3,5.3,3.8c0.6,0.1,1.2,0.2,1.8,0.2c3.2,0,5.8-1.7,7.8-5c1.7-2.8,2.6-6,2.6-9.4C156.1,82.9,155.5,80.8,154.5,79z
	 M150.3,88.2c-0.5,2.2-1.3,3.8-2.5,4.9c-1,0.9-1.9,1.2-2.7,1.1c-0.8-0.2-1.5-0.9-2-2.1c-0.4-1-0.6-2.1-0.6-3c0-0.8,0.1-1.7,0.2-2.4
	c0.3-1.4,0.9-2.7,1.8-3.9c1.1-1.6,2.2-2.3,3.4-2.1c0.8,0.2,1.5,0.9,2,2.1c0.4,1,0.6,2.1,0.6,3C150.5,86.6,150.5,87.4,150.3,88.2
	L150.3,88.2z M133.8,79c-1.2-2.1-3-3.3-5.3-3.8c-0.6-0.1-1.2-0.2-1.8-0.2c-3.2,0-5.8,1.7-7.8,5c-1.7,2.8-2.6,5.9-2.6,9.3
	c0,2.5,0.5,4.7,1.6,6.5c1.2,2.1,2.9,3.3,5.3,3.8c0.6,0.1,1.2,0.2,1.8,0.2c3.2,0,5.8-1.7,7.8-5c1.7-2.8,2.6-6,2.6-9.4
	C135.4,82.9,134.8,80.8,133.8,79z M129.6,88.2c-0.5,2.2-1.3,3.8-2.5,4.9c-1,0.9-1.9,1.2-2.7,1.1c-0.8-0.2-1.5-0.9-2-2.1
	c-0.4-1-0.6-2.1-0.6-3c0-0.8,0.1-1.7,0.2-2.4c0.3-1.4,0.9-2.7,1.8-3.9c1.1-1.6,2.2-2.3,3.4-2.1c0.8,0.2,1.5,0.9,2,2.1
	c0.4,1,0.6,2.1,0.6,3C129.8,86.6,129.7,87.4,129.6,88.2L129.6,88.2z"/>
</svg>
