<?xml version="1.0" encoding="utf-8"?>
<svg version="1.1" id="Слой_1" xmlns="http://www.w3.org/2000/svg" xmlns:xlink="http://www.w3.org/1999/xlink" x="0px" y="0px"
	 viewBox="0 0 200.9 106.5" style="enable-background:new 0 0 200.9 106.5;" xml:space="preserve">


		<path fill="#F7931A" d="M147.9,0.5c-20.2,0-37.7,11.2-46.6,27.8C94.4,15.4,82.4,5.4,67.1,1.6C38.5-5.5,9.6,11.8,2.5,40.4
			C-4.6,69,12.8,97.9,41.3,105c24.2,6,48.6-5.5,59.9-26.5c8.9,16.7,26.5,28,46.7,28c29.3,0,53-23.7,53-53S177.2,0.5,147.9,0.5z
			 M77.7,45.7c-0.7,5.2-3.6,7.7-7.6,8.7c5.3,2.7,7.9,6.9,5.4,14.2c-3.1,9-10.6,9.8-20.6,7.9l-2.4,9.7l-5.8-1.5l2.4-9.6
			c-1.6-0.4-3.1-0.8-4.7-1.2L42,83.5L36.2,82l2.3-9.8c-1.4-0.4-2.8-0.7-4.2-1.1l-7.6-1.9l2.9-6.7c0,0,4.4,1.2,4.3,1.1
			c1.7,0.4,2.4-0.7,2.7-1.4l3.8-15.3L43.1,36c0.1-1.2-0.3-2.8-2.7-3.4c0.1-0.1-4.2-1.1-4.2-1.1l1.6-6.2l8.1,2
			c1.2,0.3,2.4,0.6,3.7,0.9l2.4-9.6l5.9,1.5l-2.3,9.4c1.6,0.4,3.2,0.7,4.7,1.1l2.3-9.4l5.8,1.5L66,32.3
			C73.4,34.8,78.8,38.6,77.7,45.7z M135.9,89c-0.6-0.6-0.6-1.3-0.6-1.9l13.3-28.4V56H122v-2.5l32.2-35.3h1.9
			c-3.2,8.2-6.3,17-10.1,25.9c0,0,0,1.3,1.3,1.3h25.9c0,0,0,0.6,0.6,1.3L135.9,89z M54,36.3L51.1,48c3.3,0.8,13.5,4.2,15.1-2.4
			C67.9,38.7,57.3,37.2,54,36.3z M49.6,53.9l-3.2,12.9c4,0.9,16.2,4.9,18-2.4C66.3,56.9,53.5,54.9,49.6,53.9z"/>

</svg>
