<?xml version="1.0" encoding="utf-8"?>
<!-- Generator: Adobe Illustrator 27.2.0, SVG Export Plug-In . SVG Version: 6.00 Build 0)  -->
<svg version="1.1" id="Слой_1" xmlns="http://www.w3.org/2000/svg" xmlns:xlink="http://www.w3.org/1999/xlink" x="0px" y="0px"
	 viewBox="0 0 160 160" style="enable-background:new 0 0 160 160;" xml:space="preserve">
<style type="text/css">
	.st0{fill:#F6A505;}
	.st1{fill:#6292C7;}
	.st2{fill:#C2C2C3;}
	.st3{fill:#FFFFFF;}
</style>
<circle class="st0" cx="98.2" cy="22.7" r="22.7"/>
<g>
	<path class="st1" d="M136,53.2c0,0.4,0,0.9,0,1.3c-0.9,2.1-2,4.1-3.6,5.8c-3.5,3.7-7.3,7.2-11.3,10.3c-6.4,4.9-12.5,10.2-18.3,15.7
		c-0.6,0.5-1.1,0.8-1.9,0.8c-2.4-0.1-4.8-0.2-7.2-0.3c-3-0.2-6,0-9.1,0.2c-2.9,0.2-5.5,1-8,2.5c-3,1.9-5.2,4.6-7.4,7.4
		c-2.7,3.5-5.4,7-6.7,11.3c-0.9,3.1,0.2,5.2,3.3,6.4c1.2,0.5,2.6,0,4,0.6c-1.9,1.3-3,3.2-4.5,4.7c-1.1,1.1-1.8,2.5-2.3,4.1
		c-0.6,1.8,0,3,1.3,4c2.6,2.1,5.8,2.3,8.8,2.4c2.3,0.1,4.7-0.3,6.9-1.1c0.4-0.1,0.8-0.2,1,0.5c1,3.2,3,4.8,6.1,5.1
		c6.4,0.6,10.8-2.8,14.9-7c0.4-0.4,1-1.2,0.4-1.8c-0.6-0.6-1.3,0-1.9,0.3c-1.1,0.8-2,1.7-3.1,2.4c-2.8,1.9-5.7,3.3-9.1,2.9
		c-1.5-0.1-3.1-0.6-3.8-2.1c-0.7-1.5,0.6-2.5,1.4-3.6c1.1-1.5,2.5-2.7,3.9-4c3.9-3.4,8-5.9,13.7-5c5.2,0.8,10.2,1.9,15,4.1
		c3.9,1.8,4.6,4.1,2.7,8.1c-2,4.3-5.1,7.9-8.4,11.2c-3.4,3.3-7,6.5-10.9,9.1c-4.4,3-9.3,6.4-16.6,8.2c-1.4,0.4-2.6,0.6-3.4,0.7
		c-0.8,0-1.6,0.1-2.4,0.1c-0.5,0-1.2,0-2-0.1c0,0-0.7-0.2-1.3-0.3c-8.6-2-17.5-9.7-17.5-9.7c-5.3-4.5-9.9-9.8-12.8-16.3
		c-2.3-5.1-3.3-10.3-1.8-15.9c1.4-5.5,3.9-10.6,5.5-16c1.2-4,2.4-8,2.7-12.2c0.4-4.4-0.5-8.7-1.8-12.9c-1.7-5.5-4-10.6-7.8-15.1
		c-2.7-3.3-1.5-6.8,2.5-8c3.5-1.1,6.7-0.3,9.8,1.4c5.8,3,9.4,8,11.8,13.9c2.5,6.2,3.9,12.6,4,19.2c0,0.3-0.1,0.7,0.3,0.8
		c0.2,0,0.5-0.2,0.7-0.4c4.2-3.3,8.5-6.7,12.7-10c7.3-5.7,14.7-11.2,22.4-16.4c5.1-3.5,10.2-6.9,16.1-9.1c2.1-0.8,4.4-1.1,6.5-1.7
		c0.6,0,1.1,0,1.7,0C133.1,50.2,135,51.1,136,53.2z"/>
	<path class="st1" d="M119.1,112.9c-0.1,1.2-0.2,2.1-0.3,3c-0.1,1.5-0.6,1.4-1.7,1c-4.7-1.7-9.5-2.4-14.4-3.1
		c-5.5-0.8-9.6,1.3-13.5,4.7c-2,1.7-3.9,3.5-5.9,5.2c-2.5,2-5.6,2.9-8.8,3.2c-1.8,0.2-3.7,0.3-5.6-0.3c-2.1-0.6-2.7-1.8-1.5-3.6
		c1.7-2.6,3.8-4.8,6.1-6.9c2.4-2.2,4.9-4.3,7.4-6.5c1.5-1.3,2.9-2.6,4.6-3.7c2.1-1.3,4.5-1.7,6.9-1.8c7.4-0.4,14.7,0.2,21.8,2.6
		C117.8,107.9,119.5,109.6,119.1,112.9z"/>
	<path class="st1" d="M90,90.4c5.4-0.1,10.8,0.5,16.1,1.3c4.3,0.7,5.5,3.8,4.8,7.4c-0.5,2.8-0.8,2.8-4.4,2.1
		c-6.1-1.2-12.2-1.4-18.3-0.3c-2.8,0.6-5.1,2.2-7.2,4c-2.6,2.1-5.1,4.3-7.7,6.4c-1.4,1.1-5.8,0.8-7.2-0.3c-1.2-1-0.7-2.2-0.2-3.3
		c1.4-3.1,3.6-5.8,5.6-8.6c1.5-2.1,3.2-4,5.2-5.7c2.7-2.3,6-2.9,9.4-3C87.6,90.3,88.8,90.4,90,90.4z"/>
</g>
<path class="st2" d="M65.6,39c-0.9-0.3-1.6-0.8-2.3-1.3c-3.9-2.7-7.8-5.2-11.9-7.6c-3-1.8-6-3.6-9-5.3c-4.1-2.4-8.3-4.7-12.5-7.1
	c-1.8-1-3.6-2.1-4.7-4c-0.4-0.6-0.3-1.3-0.2-1.9c0.1-0.4,0.5-0.6,0.9-0.6c1.1-0.1,2,0.4,2.9,1c4.2,2.9,8.4,5.8,12.6,8.8
	c4.6,3.3,9.2,6.7,13.8,10.1c3.2,2.3,6.4,4.7,9.5,7C65.1,38.2,65.4,38.4,65.6,39z"/>
<path class="st2" d="M48.9,37.9c-0.8,0.2-1.7-0.1-2.5-0.3c-4.5-0.9-9-1.7-13.5-2.3c-2.2-0.3-4.4-0.8-6.6-1.2
	c-0.7-0.1-1.3-0.5-1.9-0.9c-0.3-0.3-0.5-0.7-0.4-1.1c0.1-0.4,0.5-0.8,0.9-0.8c0.6,0,1.1-0.1,1.7,0.1c5.4,1.8,10.8,3.2,16.3,4.6
	c1.8,0.5,3.5,0.9,5.3,1.3C48.6,37.4,48.8,37.5,48.9,37.9z"/>
<path class="st2" d="M50.5,5.9c0-0.6-0.1-1.2,0.5-1.4c0.6-0.3,1,0.1,1.4,0.4c1.1,1,1.5,2.4,2.2,3.6c1.5,2.8,3,5.6,4.6,8.3
	c1.4,2.4,2.8,4.8,4.2,7.2c0.2,0.3,0.4,0.6,0,0.8c-0.3,0.2-0.4-0.3-0.6-0.4c-2.3-3.2-4.5-6.4-6.8-9.7c-1.6-2.3-3.4-4.5-5-6.9
	C50.7,7.1,50.4,6.5,50.5,5.9z"/>
<path class="st3" d="M106.2,23.3c3.9-3.7,3.6-7.8-0.9-11.2c0.2-0.6,0.4-1.2,0.6-1.9c0.3-1.1-0.1-2-1.1-2.3c-0.9-0.3-1.8,0.2-2.2,1.3
	c-0.2,0.7-0.4,1.3-0.6,1.9c-0.8-0.3-1.5-0.5-2.2-0.7c0.2-0.7,0.4-1.3,0.6-1.9c0.3-1.2-0.1-2.1-1.1-2.4c-1-0.3-1.8,0.3-2.2,1.4
	c-0.2,0.6-0.4,1.3-0.6,1.9c-0.7-0.2-1.3-0.4-1.9-0.6c-1-0.3-1.9,0.1-2.2,1.1c-0.3,0.9,0.2,1.8,1.2,2.1c0.6,0.2,1.3,0.4,1.9,0.6
	c-1.6,5.1-3.1,10-4.6,15.1c-0.7-0.2-1.3-0.4-1.9-0.6c-1-0.3-1.9,0.1-2.2,1.1c-0.3,0.9,0.2,1.8,1.2,2.1c0.6,0.2,1.3,0.4,1.8,0.6
	c0,0.1,0,0.2,0,0.2c-0.2,0.7-0.4,1.4-0.6,2.2c-0.3,1,0.2,1.9,1.1,2.2c0.9,0.3,1.8-0.2,2.2-1.2c0.2-0.7,0.5-1.5,0.7-2.2
	c0.8,0.2,1.5,0.5,2.2,0.7c-0.2,0.8-0.5,1.5-0.7,2.3c-0.3,1,0.2,1.9,1.1,2.2c0.9,0.3,1.8-0.2,2.2-1.2c0.2-0.7,0.5-1.5,0.7-2.3
	c3.3,1.1,6.2,0.7,8.2-2.2C108.9,28.8,108.4,25.9,106.2,23.3z M98.9,13.9c1.7,0.5,3.5,0.9,5.2,1.7c1.3,0.6,1.7,2.2,1.2,3.6
	c-0.5,1.3-1.9,2.2-3.3,1.9c-1.7-0.4-3.3-1-4.9-1.5C97.7,17.7,98.3,15.8,98.9,13.9z M100.8,30.9c-2.2-0.6-4.3-1.3-6.6-2
	c0.6-2,1.2-3.8,1.8-5.8c0.5,0.2,1,0.3,1.5,0.5c1.7,0.5,3.4,1,5,1.6c1.7,0.5,2.5,2.2,2,3.8C104.1,30.5,102.4,31.4,100.8,30.9z"/>
</svg>
